<?xml version="1.0" encoding="utf-8"?>
<!-- Generator: Adobe Illustrator 21.0.0, SVG Export Plug-In . SVG Version: 6.00 Build 0)  -->
<svg version="1.1" id="Layer_1" xmlns="http://www.w3.org/2000/svg" xmlns:xlink="http://www.w3.org/1999/xlink" x="0px" y="0px"
	 viewBox="0 0 52.2 44.3" style="enable-background:new 0 0 52.2 44.3;" xml:space="preserve">
<style type="text/css">
	.st0{fill:#473BF0;}
	.st1{fill:#1414C1;}
	.st2{fill:#1DB2CD;}
</style>
<g>
	<path class="st0" d="M36.6,5.4l-4.1,10.9c-0.2,0-0.4,0-0.6,0h-7.7L19.7,28c-6.9-0.3-12.4-6-12.4-13c0-3.6,1.5-6.9,3.8-9.2
		c2.4-2.4,5.6-3.8,9.2-3.8h13.8C36,1.9,37.3,3.7,36.6,5.4z"/>
	<path class="st1" d="M32.5,16.3L28,28h-7.7c-0.2,0-0.4,0-0.6,0l4.4-11.7h7.7C32,16.3,32.3,16.3,32.5,16.3z"/>
	<path class="st2" d="M44.9,29.4c0,3.6-1.5,6.9-3.8,9.2c-2.4,2.4-5.6,3.8-9.2,3.8H18c-1.8,0-3.1-1.8-2.5-3.5L19.7,28
		c0.2,0,0.4,0,0.6,0H28l4.4-11.7C39.4,16.6,44.9,22.4,44.9,29.4z"/>
</g>
</svg>
